0
SECTION
2
HEADER
9
$INSUNITS
70
4
9
$ACADVER
1
AC1014
9
$HANDSEED
5
FFFF
0
ENDSEC
0
SECTION
2
TABLES
0
TABLE
2
VPORT
5
8
100
AcDbSymbolTable
0
ENDTAB
0
TABLE
2
LTYPE
5
5
100
AcDbSymbolTable
0
LTYPE
5
14
100
AcDbSymbolTableRecord
100
AcDbLinetypeTableRecord
2
BYBLOCK
70
0
0
LTYPE
5
15
100
AcDbSymbolTableRecord
100
AcDbLinetypeTableRecord
2
BYLAYER
70
0
0
ENDTAB
0
TABLE
2
LAYER
5
2
100
AcDbSymbolTable
70
2
0
LAYER
5
50
100
AcDbSymbolTableRecord
100
AcDbLayerTableRecord
2
0
70
0
6
CONTINUOUS
0
ENDTAB
0
TABLE
2
STYLE
5
3
100
AcDbSymbolTable
70
1
0
STYLE
5
11
100
AcDbSymbolTableRecord
100
AcDbTextStyleTableRecord
2
STANDARD
70
0
0
ENDTAB
0
TABLE
2
VIEW
5
6
100
AcDbSymbolTable
70
0
0
ENDTAB
0
TABLE
2
UCS
5
7
100
AcDbSymbolTable
70
0
0
ENDTAB
0
TABLE
2
APPID
5
9
100
AcDbSymbolTable
70
2
0
APPID
5
12
100
AcDbSymbolTableRecord
100
AcDbRegAppTableRecord
2
ACAD
70
0
0
ENDTAB
0
TABLE
2
DIMSTYLE
5
A
100
AcDbSymbolTable
70
1
0
ENDTAB
0
TABLE
2
BLOCK_RECORD
5
1
100
AcDbSymbolTable
70
1
0
BLOCK_RECORD
5
1F
100
AcDbSymbolTableRecord
100
AcDbBlockTableRecord
2
*MODEL_SPACE
0
BLOCK_RECORD
5
1B
100
AcDbSymbolTableRecord
100
AcDbBlockTableRecord
2
*PAPER_SPACE
0
ENDTAB
0
ENDSEC
0
SECTION
2
BLOCKS
0
BLOCK
5
20
100
AcDbEntity
100
AcDbBlockBegin
2
*MODEL_SPACE
0
ENDBLK
5
21
100
AcDbEntity
100
AcDbBlockEnd
0
BLOCK
5
1C
100
AcDbEntity
100
AcDbBlockBegin
2
*PAPER_SPACE
0
ENDBLK
5
1D
100
AcDbEntity
100
AcDbBlockEnd
0
ENDSEC
0
SECTION
2
ENTITIES
0
LWPOLYLINE
5
100
100
AcDbEntity
8
0
100
AcDbPolyline
90
4
70
1
43
0.0
10
10.636946954747842
20
13.762267559269933
10
12.636946921698001
20
10.298165925050879
10
14.325696466908022
20
11.273165907553507
10
12.325696500782247
20
14.737267542248523
0
LWPOLYLINE
5
101
100
AcDbEntity
8
0
100
AcDbPolyline
90
4
70
1
43
0.0
10
12.636946820995924
20
-10.298166048623061
10
10.636946820171552
20
-13.762267663284831
10
12.325696356671781
20
-14.737267662777093
10
14.325696356671767
20
-11.273166047639364
0
LWPOLYLINE
5
102
100
AcDbEntity
8
0
100
AcDbPolyline
90
4
70
1
43
0.0
10
6.5999998426323092
20
-16.093000061154118
10
2.5999998426323385
20
-16.093000022991472
10
2.5999998235639872
20
-18.043000021024078
10
6.5999998235639605
20
-18.043000060138645
0
LWPOLYLINE
5
103
100
AcDbEntity
8
0
100
AcDbPolyline
90
4
70
1
43
0.0
10
-10.636946954747849
20
-13.76226755926993
10
-12.636946921698007
20
-10.298165925050872
10
-14.325696466908028
20
-11.2731659075535
10
-12.325696500782254
20
-14.737267542248516
0
LWPOLYLINE
5
104
100
AcDbEntity
8
0
100
AcDbPolyline
90
4
70
1
43
0.0
10
-6.5999998426323074
20
16.093000061154118
10
-2.5999998426323363
20
16.093000022991472
10
-2.599999823563985
20
18.043000021024078
10
-6.5999998235639579
20
18.043000060138645
0
LWPOLYLINE
5
105
100
AcDbEntity
8
0
100
AcDbPolyline
90
4
70
1
43
0.0
10
-7.1999999999999993
20
-18.042999987814309
10
-1.9999999999999978
20
-18.042999996615087
10
-1.9999999999999996
20
-16.092999996615085
10
-7.1999999999999993
20
-16.092999996615085
0
LWPOLYLINE
5
106
100
AcDbEntity
8
0
100
AcDbPolyline
90
4
70
1
43
0.0
10
2.6000000000000205
20
16.092999997567002
10
6.5999999999999925
20
16.092999996615085
10
6.5999999999999925
20
18.042999995599612
10
2.6000000000000205
20
18.042999995599612
0
LWPOLYLINE
5
107
100
AcDbEntity
8
0
100
AcDbPolyline
90
4
70
1
43
0.0
10
-17.236946797380149
20
2.3307325018841949
10
-15.236946764330337
20
5.7948340979405986
10
-16.925696290472004
20
6.7698341134705808
10
-18.925696324346202
20
3.3057325178901333
0
LWPOLYLINE
5
108
100
AcDbEntity
8
0
100
AcDbPolyline
90
4
70
1
43
0.0
10
-15.23694682099595
20
-5.7948339489439338
10
-17.236946820171543
20
-2.3307323333302419
10
-18.925696356671775
20
-3.3057323328225041
10
-16.925696356671793
20
-6.769833947960235
0
LWPOLYLINE
5
109
100
AcDbEntity
8
0
100
AcDbPolyline
90
4
70
1
43
0.0
10
-12.636946820995922
20
10.29816604862307
10
-10.636946820171547
20
13.76226766328484
10
-12.325696356671774
20
14.737267662777104
10
-14.325696356671765
20
11.273166047639373
0
LWPOLYLINE
5
110
100
AcDbEntity
8
0
100
AcDbPolyline
90
4
70
1
43
0.0
10
15.236946820995945
20
5.7948339489439418
10
17.236946820171546
20
2.3307323333302508
10
18.925696356671775
20
3.305732332822513
10
16.925696356671789
20
6.7698339479602438
0
LWPOLYLINE
5
111
100
AcDbEntity
8
0
100
AcDbPolyline
90
4
70
1
43
0.0
10
17.236946797380146
20
-2.3307325018841851
10
15.236946764330339
20
-5.7948340979405897
10
16.925696290472004
20
-6.7698341134705693
10
18.925696324346202
20
-3.3057325178901231
0
LWPOLYLINE
5
112
100
AcDbEntity
8
0
100
AcDbPolyline
90
12
70
1
43
0.0
10
-8.5407426240071533
20
-18.792999958241548
42
-0.26794919243112286
10
-12.004844229366265
20
-16.792999941304437
10
-20.545586689160654
20
-1.9999998995460118
42
-0.26794919243112192
10
-20.545586669603367
20
2.0000001004539869
10
-12.004844065153497
20
16.793000058695533
42
-0.26794919243112264
10
-8.5407424402371035
20
18.793000041758429
10
8.540742624007148
20
18.792999958241555
42
-0.26794919243112214
10
12.004844229366256
20
16.792999941304451
10
20.545586689160658
20
1.9999998995460213
42
-0.26794919243112286
10
20.545586669603367
20
-2.000000100453978
10
12.004844065153499
20
-16.793000058695529
42
-0.26794919243112236
10
8.5407424402371053
20
-18.793000041758422
0
ENDSEC
0
SECTION
2
OBJECTS
0
DICTIONARY
5
C
100
AcDbDictionary
3
ACAD_GROUP
350
D
3
ACAD_MLINESTYLE
350
17
0
DICTIONARY
5
D
100
AcDbDictionary
0
DICTIONARY
5
1A
330
C
100
AcDbDictionary
0
DICTIONARY
5
17
100
AcDbDictionary
0
ENDSEC
0
EOF
