0
SECTION
2
HEADER
9
$INSUNITS
70
4
9
$ACADVER
1
AC1014
9
$HANDSEED
5
FFFF
0
ENDSEC
0
SECTION
2
TABLES
0
TABLE
2
VPORT
5
8
100
AcDbSymbolTable
0
ENDTAB
0
TABLE
2
LTYPE
5
5
100
AcDbSymbolTable
0
LTYPE
5
14
100
AcDbSymbolTableRecord
100
AcDbLinetypeTableRecord
2
BYBLOCK
70
0
0
LTYPE
5
15
100
AcDbSymbolTableRecord
100
AcDbLinetypeTableRecord
2
BYLAYER
70
0
0
ENDTAB
0
TABLE
2
LAYER
5
2
100
AcDbSymbolTable
70
2
0
LAYER
5
50
100
AcDbSymbolTableRecord
100
AcDbLayerTableRecord
2
0
70
0
6
CONTINUOUS
0
ENDTAB
0
TABLE
2
STYLE
5
3
100
AcDbSymbolTable
70
1
0
STYLE
5
11
100
AcDbSymbolTableRecord
100
AcDbTextStyleTableRecord
2
STANDARD
70
0
0
ENDTAB
0
TABLE
2
VIEW
5
6
100
AcDbSymbolTable
70
0
0
ENDTAB
0
TABLE
2
UCS
5
7
100
AcDbSymbolTable
70
0
0
ENDTAB
0
TABLE
2
APPID
5
9
100
AcDbSymbolTable
70
2
0
APPID
5
12
100
AcDbSymbolTableRecord
100
AcDbRegAppTableRecord
2
ACAD
70
0
0
ENDTAB
0
TABLE
2
DIMSTYLE
5
A
100
AcDbSymbolTable
70
1
0
ENDTAB
0
TABLE
2
BLOCK_RECORD
5
1
100
AcDbSymbolTable
70
1
0
BLOCK_RECORD
5
1F
100
AcDbSymbolTableRecord
100
AcDbBlockTableRecord
2
*MODEL_SPACE
0
BLOCK_RECORD
5
1B
100
AcDbSymbolTableRecord
100
AcDbBlockTableRecord
2
*PAPER_SPACE
0
ENDTAB
0
ENDSEC
0
SECTION
2
BLOCKS
0
BLOCK
5
20
100
AcDbEntity
100
AcDbBlockBegin
2
*MODEL_SPACE
0
ENDBLK
5
21
100
AcDbEntity
100
AcDbBlockEnd
0
BLOCK
5
1C
100
AcDbEntity
100
AcDbBlockBegin
2
*PAPER_SPACE
0
ENDBLK
5
1D
100
AcDbEntity
100
AcDbBlockEnd
0
ENDSEC
0
SECTION
2
ENTITIES
0
CIRCLE
5
100
100
AcDbEntity
8
0
100
AcDbCircle
10
-5
20
-8.6602540378443891
30
0
40
0.75000000000000011
0
LWPOLYLINE
5
101
100
AcDbEntity
8
0
100
AcDbPolyline
90
4
70
1
43
0.0
10
-1.9999999999999996
20
-16.092999996615085
10
-7.1999999999999993
20
-16.092999996615085
10
-7.1999999999999993
20
-18.042999987814309
10
-1.9999999999999978
20
-18.042999996615087
0
LWPOLYLINE
5
102
100
AcDbEntity
8
0
100
AcDbPolyline
90
4
70
1
43
0.0
10
10.336946830724658
20
-14.281882911648342
10
12.025696368104313
20
-15.256882911648344
10
14.625696368104313
20
-10.753550811969264
10
12.936946830724656
20
-9.7785508119692643
0
LWPOLYLINE
5
103
100
AcDbEntity
8
0
100
AcDbPolyline
90
4
70
1
43
0.0
10
7.1999998426323186
20
-16.093000067021304
10
1.9999998426323207
20
-16.093000016172368
10
1.9999998235639671
20
-18.043000016172364
10
7.1999998235639691
20
-18.043000058220528
0
LWPOLYLINE
5
104
100
AcDbEntity
8
0
100
AcDbPolyline
90
4
70
1
43
0.0
10
10.336946970382076
20
14.281882810567035
10
12.936946926345607
20
9.7785506854634914
10
14.625696473259438
20
10.753550668949812
10
12.025696517295907
20
15.256882794053364
0
LWPOLYLINE
5
105
100
AcDbEntity
8
0
100
AcDbPolyline
90
4
70
1
43
0.0
10
-17.536946813014399
20
1.8111172686399557
10
-14.936946768977919
20
6.3144493428945667
10
-16.625696296823399
20
7.2894493594082457
10
-19.225696340859876
20
2.7861172851536331
0
LWPOLYLINE
5
106
100
AcDbEntity
8
0
100
AcDbPolyline
90
4
70
1
43
0.0
10
-10.33694697038209
20
-14.281882810567033
10
-12.936946926345612
20
-9.7785506854634843
10
-14.625696473259442
20
-10.753550668949805
10
-12.025696517295916
20
-15.256882794053354
0
LWPOLYLINE
5
107
100
AcDbEntity
8
0
100
AcDbPolyline
90
4
70
1
43
0.0
10
-10.336946830724651
20
14.281882911648351
10
-12.025696368104306
20
15.256882911648354
10
-14.625696368104311
20
10.753550811969273
10
-12.936946830724651
20
9.7785508119692679
0
LWPOLYLINE
5
108
100
AcDbEntity
8
0
100
AcDbPolyline
90
4
70
1
43
0.0
10
17.536946813014389
20
-1.8111172686399502
10
14.936946768977924
20
-6.3144493428945614
10
16.625696296823399
20
-7.2894493594082359
10
19.225696340859869
20
-2.7861172851536233
0
LWPOLYLINE
5
109
100
AcDbEntity
8
0
100
AcDbPolyline
90
4
70
1
43
0.0
10
-17.536946830724659
20
-1.8111170971524126
10
-19.225696368104316
20
-2.7861170971524096
10
-16.625696368104318
20
-7.2894491968314936
10
-14.936946830724665
20
-6.3144491968314913
0
LWPOLYLINE
5
110
100
AcDbEntity
8
0
100
AcDbPolyline
90
4
70
1
43
0.0
10
7.200000000000002
20
16.093000008800765
10
7.200000000000002
20
18.043000008800767
10
2.0000000000000022
20
18.043000008800767
10
2.000000000000004
20
16.093000008800765
0
LWPOLYLINE
5
111
100
AcDbEntity
8
0
100
AcDbPolyline
90
4
70
1
43
0.0
10
17.536946830724659
20
1.8111170971524175
10
19.225696368104316
20
2.7861170971524185
10
16.625696368104318
20
7.2894491968315016
10
14.936946830724661
20
6.3144491968315002
0
LWPOLYLINE
5
112
100
AcDbEntity
8
0
100
AcDbPolyline
90
4
70
1
43
0.0
10
-7.1999998426323186
20
16.093000079206988
10
-1.9999998426323184
20
16.093000028358055
10
-1.999999823563966
20
18.043000028358051
10
-7.1999998235639664
20
18.043000079206987
0
LWPOLYLINE
5
113
100
AcDbEntity
8
0
100
AcDbPolyline
90
12
70
1
43
0.0
10
-8.5407426240071391
20
-18.792999958241559
42
-0.26794919243112297
10
-12.004844229366254
20
-16.792999941304455
10
-20.545586689160654
20
-1.9999998995460322
42
-0.26794919243112297
10
-20.545586669603374
20
2.0000001004539669
10
-12.004844065153531
20
16.793000058695529
42
-0.26794919243112264
10
-8.5407424402371355
20
18.793000041758425
10
8.5407426240071374
20
18.79299995824157
42
-0.26794919243112214
10
12.004844229366254
20
16.792999941304465
10
20.545586689160654
20
1.9999998995460497
42
-0.26794919243112325
10
20.545586669603374
20
-2.0000001004539514
10
12.004844065153526
20
-16.793000058695529
42
-0.26794919243112214
10
8.5407424402371284
20
-18.793000041758425
0
ENDSEC
0
SECTION
2
OBJECTS
0
DICTIONARY
5
C
100
AcDbDictionary
3
ACAD_GROUP
350
D
3
ACAD_MLINESTYLE
350
17
0
DICTIONARY
5
D
100
AcDbDictionary
0
DICTIONARY
5
1A
330
C
100
AcDbDictionary
0
DICTIONARY
5
17
100
AcDbDictionary
0
ENDSEC
0
EOF
